<svg xmlns="http://www.w3.org/2000/svg" width="48" height="24"><g data-name="Group 27912"><g data-name="ic/arrow/right"><path data-name="Rectangle 23680" fill="none" d="M0 0h24v24H0z"/><g data-name="Group 27076"><g data-name="長方形 23333"><path data-name="Rectangle 23828" fill="none" d="M0 0h24v24H0z"/></g><g data-name="Group 27075"><path data-name="Path 41844" d="M10 17a1 1 0 0 1-.707-1.707L12.586 12 9.294 8.707a1 1 0 1 1 1.414-1.414l4 4a1 1 0 0 1 0 1.414l-4 4A1 1 0 0 1 10 17Z" fill="#99869b"/></g></g></g><g data-name="ic/arrow/right"><path data-name="Rectangle 23680" fill="none" d="M24 0h24v24H24z"/><g data-name="Group 27076"><g data-name="長方形 23333"><path data-name="Rectangle 23828" fill="none" d="M24 0h24v24H24z"/></g><g data-name="Group 27075"><path data-name="Path 41844" d="M34 17a1 1 0 0 1-.707-1.707L36.586 12l-3.292-3.293a1 1 0 1 1 1.414-1.414l4 4a1 1 0 0 1 0 1.414l-4 4A1 1 0 0 1 34 17Z" fill="#b60081"/></g></g></g></g></svg>
