<svg xmlns="http://www.w3.org/2000/svg" width="48" height="24"><g data-name="Group 27911"><g data-name="ic/arrow/left"><path data-name="Rectangle 23680" fill="none" d="M24 0h24v24H24z"/><g data-name="Group 27074"><path data-name="長方形 23333" fill="none" d="M24 0h24v24H24z"/><g data-name="Group 27073"><path data-name="Path 41843" d="M38 17a1 1 0 0 1-.707-.293l-4-4a1 1 0 0 1 0-1.414l4-4a1 1 0 1 1 1.414 1.414L35.414 12l3.293 3.293A1 1 0 0 1 38 17Z" fill="#b60081"/></g></g></g><g data-name="ic/arrow/left"><path data-name="Rectangle 23680" fill="none" d="M0 0h24v24H0z"/><g data-name="Group 27074"><path data-name="長方形 23333" fill="none" d="M0 0h24v24H0z"/><g data-name="Group 27073"><path data-name="Path 41843" d="M14 17a1 1 0 0 1-.707-.293l-4-4a1 1 0 0 1 0-1.414l4-4a1 1 0 1 1 1.414 1.414L11.414 12l3.293 3.293A1 1 0 0 1 14 17Z" fill="#97889b"/></g></g></g></g></svg>
