<svg xmlns="http://www.w3.org/2000/svg" width="48" height="24"><g data-name="Group 27914"><g data-name="ic/close"><path data-name="Rectangle 23702" fill="none" d="M0 0h24v24H0z"/><g data-name="Group 27087"><path data-name="Path 41851" d="m13.414 12 5.293-5.291A1 1 0 0 0 17.293 5.3L12 10.586 6.71 5.293A1 1 0 0 0 5.3 6.707L10.586 12l-5.293 5.29a1 1 0 1 0 1.414 1.41L12 13.414l5.292 5.293a1 1 0 0 0 1.408-1.414Z" fill="#97889b"/><g data-name="長方形 23333"><path data-name="Rectangle 23831" fill="none" d="M0 0h24v24H0z"/></g></g></g><g data-name="ic/close"><path data-name="Rectangle 23702" fill="none" d="M24 0h24v24H24z"/><g data-name="Group 27087"><path data-name="Path 41851" d="m37.414 12 5.293-5.291A1 1 0 0 0 41.293 5.3L36 10.586l-5.29-5.293a1 1 0 0 0-1.41 1.414L34.586 12l-5.293 5.29a1 1 0 1 0 1.414 1.41L36 13.414l5.292 5.293a1 1 0 0 0 1.408-1.414Z" fill="#b60081"/><g data-name="長方形 23333"><path data-name="Rectangle 23831" fill="none" d="M24 0h24v24H24z"/></g></g></g></g></svg>
